# xmcd
#
# Track frame offsets: 
#        150
#        16885
#        41625
#        65658
#        98047
#        121565
#        138057
#        157611
#        178989
#        196331
#        212141
#        230992
#
# Disc length: 3215 seconds
#
# Revision: 0
# Processed by: cddbd v1.5.2PL0 Copyright (c) Steve Scherf et al.
# Submitted via: ExactAudioCopy v1.3
#
DISCID=9d0c8d0c
DTITLE=Brandon Santini - This Time Another Year
DYEAR=2013
DGENRE=Harmonica Blues
TTITLE0=Got Good Lovin'
TTITLE1=This Time Another Year
TTITLE2=What You Doing To Me
TTITLE3=Late In The Evening
TTITLE4=Dig Me A Grave
TTITLE5=Bye Bye Bird
TTITLE6=Things You Putting Down
TTITLE7=Been So Blue
TTITLE8=Coin Operated Woman
TTITLE9=Help Me With The Blues
TTITLE10=Raise Your Window
TTITLE11=Fish Is Bitin'
EXTD=
EXTT0=
EXTT1=
EXTT2=
EXTT3=
EXTT4=
EXTT5=
EXTT6=
EXTT7=
EXTT8=
EXTT9=
EXTT10=
EXTT11=
PLAYORDER=
